<?xml version="1.0" standalone="no"?>
<!DOCTYPE svg PUBLIC "-//W3C//DTD SVG 20010904//EN"
 "http://www.w3.org/TR/2001/REC-SVG-20010904/DTD/svg10.dtd">
<svg version="1.0" xmlns="http://www.w3.org/2000/svg"
 width="500.000000pt" height="500.000000pt" viewBox="0 0 500.000000 500.000000"
 preserveAspectRatio="xMidYMid meet">
<metadata>
Created by potrace 1.14, written by Peter Selinger 2001-2017
</metadata>
<g transform="translate(0.000000,500.000000) scale(0.100000,-0.100000)"
fill="#000000" stroke="none">
<path d="M2410 4518 c-114 -107 -210 -203 -210 -209 0 -4 -13 -22 -30 -40 -16
-19 -30 -38 -30 -42 0 -8 54 26 79 51 8 8 24 11 40 7 23 -5 33 2 74 49 26 30
47 62 47 71 0 19 86 105 105 105 7 0 39 -30 71 -66 51 -58 136 -116 149 -102
3 3 -42 54 -100 114 -58 60 -105 112 -105 117 0 20 -31 1 -90 -55z"/>
<path d="M2710 4326 c0 -2 7 -6 15 -10 8 -3 15 -1 15 4 0 6 -7 10 -15 10 -8 0
-15 -2 -15 -4z"/>
<path d="M2790 4259 c0 -6 10 -22 23 -35 23 -24 47 -32 47 -14 0 6 -5 10 -11
10 -7 0 -22 11 -35 26 -13 14 -24 20 -24 13z"/>
<path d="M2110 4196 c0 -13 -60 -72 -149 -148 -33 -28 -42 -40 -34 -50 6 -7
12 -22 14 -32 3 -16 9 -11 33 22 17 25 37 42 48 42 10 0 49 28 86 63 66 63 67
63 52 90 -16 28 -50 37 -50 13z"/>
<path d="M2956 4095 c-3 -9 -6 -21 -6 -26 0 -13 90 -109 101 -109 17 0 9 23
-21 57 -16 18 -30 38 -30 44 0 5 -8 19 -19 30 -16 18 -19 18 -25 4z"/>
<path d="M1834 3915 c-17 -16 -58 -56 -90 -87 -32 -32 -95 -99 -139 -149 -44
-49 -101 -112 -127 -139 -53 -53 -57 -64 -29 -80 16 -8 21 -6 25 8 4 10 20 28
36 40 17 13 30 29 30 38 0 8 11 20 25 26 14 6 25 15 25 19 0 4 17 18 39 29 21
12 49 40 62 61 13 21 27 39 30 39 4 0 9 10 13 23 7 31 43 67 60 61 14 -5 36
31 52 86 3 14 11 28 17 31 5 4 8 11 6 16 -2 5 -18 -5 -35 -22z"/>
<path d="M1916 3923 c-3 -3 -6 -14 -6 -24 0 -9 -6 -20 -12 -22 -9 -4 -10 -6
-1 -6 13 -1 43 26 43 39 0 12 -16 21 -24 13z"/>
<path d="M1364 3433 c-29 -42 -451 -450 -498 -482 -11 -8 -38 -32 -58 -52 -20
-21 -48 -45 -61 -54 -31 -20 -41 -58 -24 -90 l13 -25 41 35 c23 19 52 52 64
73 13 20 41 61 62 90 32 44 43 53 63 49 17 -3 28 3 40 22 10 14 92 100 184
191 162 160 179 180 200 234 13 35 -4 41 -26 9z"/>
<path d="M2373 3225 c-3 -9 -3 -19 0 -22 4 -3 -2 -18 -12 -32 -10 -14 -45 -75
-77 -136 -32 -60 -63 -117 -69 -126 -5 -9 -21 -36 -34 -60 -13 -24 -55 -95
-92 -157 -38 -62 -69 -115 -69 -118 0 -9 -308 -510 -362 -589 -30 -44 -63 -97
-72 -117 -10 -20 -24 -42 -32 -49 -23 -19 -16 -48 18 -80 18 -16 36 -29 41
-29 11 0 81 52 86 64 2 5 18 25 36 45 18 20 44 54 58 76 14 22 71 86 126 143
95 96 114 122 91 122 -5 0 -10 -7 -10 -15 0 -8 -6 -15 -13 -15 -7 0 -27 -16
-44 -35 -37 -41 -79 -49 -67 -12 8 25 71 124 85 133 5 3 9 15 9 26 0 11 25 51
55 89 30 37 55 77 55 88 0 11 9 22 19 26 11 3 37 29 59 58 22 29 54 67 72 86
39 41 32 50 -16 22 -42 -25 -55 -20 -34 12 8 12 25 43 39 68 35 62 99 132 139
153 18 9 46 35 62 58 17 23 39 48 50 55 29 20 50 66 50 108 0 35 -44 117 -84
158 -22 21 -55 22 -63 2z"/>
<path d="M2759 3017 c-41 -29 -108 -75 -149 -102 -76 -49 -130 -95 -114 -95 5
0 15 -4 23 -9 11 -7 7 -15 -19 -38 -52 -47 -30 -61 36 -23 95 53 96 41 9 -95
-139 -215 -180 -283 -236 -393 -33 -62 -59 -121 -59 -132 0 -23 71 -80 100
-80 29 0 156 131 171 177 15 45 392 420 447 445 20 9 60 35 87 57 28 22 93 70
146 106 79 54 103 66 129 63 55 -5 58 -26 17 -106 -20 -39 -60 -106 -90 -149
-29 -43 -84 -122 -120 -175 -37 -53 -67 -102 -67 -108 0 -29 57 34 170 186 19
26 51 66 71 88 20 23 47 61 59 86 13 25 30 56 39 70 19 28 41 88 41 111 0 8
-10 26 -22 38 -19 21 -27 23 -97 19 -61 -4 -88 -11 -136 -37 -127 -69 -279
-178 -428 -306 -38 -33 -88 -75 -111 -93 -23 -18 -51 -42 -64 -53 -22 -19 -42
-25 -42 -13 0 3 14 23 30 44 17 21 30 40 30 43 0 11 93 161 130 211 22 29 40
56 40 60 0 3 15 30 34 59 37 55 80 172 71 188 -13 21 -56 6 -126 -44z"/>
<path d="M525 2593 c-55 -58 -101 -115 -103 -125 -2 -13 40 -62 136 -158 89
-89 147 -156 161 -185 11 -24 29 -49 40 -55 11 -5 22 -18 26 -29 3 -10 42 -47
87 -82 45 -35 97 -81 117 -103 20 -21 58 -59 86 -85 65 -61 227 -218 240 -232
6 -7 82 -83 170 -171 88 -87 163 -162 167 -166 45 -45 257 -271 299 -318 52
-59 118 -104 153 -104 9 0 25 -14 34 -31 25 -46 95 -128 229 -267 l118 -123
75 75 c41 41 111 112 155 157 44 44 94 92 111 105 18 14 44 43 59 65 15 23 43
55 63 73 35 30 177 174 247 249 19 21 35 42 35 47 0 5 14 17 32 26 28 15 221
196 386 364 35 36 68 70 74 75 6 6 24 25 42 44 76 82 445 448 517 512 43 40
79 76 79 81 0 6 32 41 72 79 58 56 67 69 49 69 -22 0 -56 -18 -100 -55 -34
-28 -261 -248 -460 -445 -91 -91 -182 -176 -202 -188 -20 -12 -50 -39 -65 -60
-16 -20 -69 -78 -119 -127 -49 -50 -103 -106 -118 -125 -50 -62 -217 -229
-235 -235 -9 -4 -35 -34 -58 -68 -28 -43 -53 -69 -84 -85 -48 -25 -61 -39 -90
-93 -21 -41 -76 -99 -92 -99 -31 0 -148 -116 -174 -172 -12 -27 -30 -44 -64
-61 -27 -13 -59 -35 -73 -48 -63 -59 -73 -60 -104 -12 -24 36 -78 91 -128 128
-22 16 -51 42 -63 57 -13 16 -30 28 -38 28 -8 0 -20 12 -27 27 -12 27 -39 56
-104 109 -18 14 -33 32 -33 39 0 7 -22 31 -49 54 -27 22 -69 69 -95 103 -25
35 -72 86 -103 113 -32 28 -103 96 -159 153 -56 56 -105 102 -109 102 -10 0
-145 140 -145 150 0 13 -71 80 -130 125 -29 22 -89 77 -133 122 -43 45 -87 85
-96 88 -9 3 -27 22 -41 42 -41 60 -371 385 -495 488 l-30 24 44 38 c46 40 151
173 151 192 0 32 -45 0 -135 -96z"/>
<path d="M2306 2691 c-4 -5 -2 -12 3 -15 5 -4 12 -2 15 3 4 5 2 12 -3 15 -5 4
-12 2 -15 -3z"/>
<path d="M2280 2660 c0 -5 5 -10 10 -10 6 0 10 5 10 10 0 6 -4 10 -10 10 -5 0
-10 -4 -10 -10z"/>
<path d="M3045 2323 c-4 -13 -11 -23 -16 -23 -5 0 -9 -7 -9 -16 0 -12 6 -9 21
10 11 14 18 32 15 39 -3 7 -7 3 -11 -10z"/>
</g>
</svg>
